<svg id="Layer_1" data-name="Layer 1" xmlns="http://www.w3.org/2000/svg" viewBox="0 0 245 78.24"><defs><style>.cls-1,.cls-3,.cls-4{isolation:isolate;}.cls-2{fill:#fff;}.cls-3,.cls-4{fill:none;stroke:#fff;}.cls-3{opacity:0.32;}.cls-4{opacity:0.32;}.cls-5{fill:#eec620;}</style></defs><g id="Group_5" data-name="Group 5"><g id="PERFILADOR-2" class="cls-1"><g class="cls-1"><path class="cls-2" d="M36.25,41.94A6.24,6.24,0,0,1,34,47.25Q31.76,49,27,49H24.7v4.29h3.09V57H16.16V53.25h2.78V38.68H16.16V34.93H26.89q4.74,0,7,1.72A6.16,6.16,0,0,1,36.25,41.94Zm-6.06,0a3.39,3.39,0,0,0-.56-2.1,2.63,2.63,0,0,0-1.6-1,12.46,12.46,0,0,0-2.42-.21H24.7V45.3h.91a8.38,8.38,0,0,0,2.83-.38,2.41,2.41,0,0,0,1.38-1.09A4.1,4.1,0,0,0,30.19,41.94Z"/><path class="cls-2" d="M52.88,41.91V38.68H46v5.06h5.52v3.72H46v5.79h6.84V50h4.23v7H37.65V53.25h2.66V38.68H37.65V34.93H57.11v7Z"/><path class="cls-2" d="M79.41,41a5.84,5.84,0,0,1-1,3.39,6.7,6.7,0,0,1-2.86,2.25l3.56,6.66H82V57H75.29l-5-9.65H67.79v5.9h2.77V57H59V53.25h3V38.68H59V34.93H71.6a9.45,9.45,0,0,1,5.74,1.54A5.24,5.24,0,0,1,79.41,41Zm-6,.24a2.25,2.25,0,0,0-.8-1.88,3.49,3.49,0,0,0-2.2-.63H67.79V43.8H69.9C72.24,43.8,73.4,42.93,73.4,41.19Z"/><path class="cls-2" d="M98.13,41.74V38.68H91.49v5.09H96.3v3.75H91.49v5.73h3.43V57H82.59V53.25h3.15V38.68H82.59V34.93h19.77v6.81Z"/><path class="cls-2" d="M112.22,38.68V53.25h3.4V57H103.14V53.25h3.32V38.68h-3.32V34.93h12.48v3.75Z"/><path class="cls-2" d="M125.54,38.68V53.25h6.52V46.44h4.32V57H116.63V53.25h3.15V38.68h-3.15V34.93h12.14v3.75Z"/><path class="cls-2" d="M152.21,38.68l4.62,14.57h2.63V57H148.61V53.25h2.83l-1.06-3.75h-5.73l-1.17,3.75h3V57h-9.76V53.25h2.72l4.3-14.57h-2.95V34.93h14.45v3.75Zm-4.6.89-2,6.66h3.84Z"/><path class="cls-2" d="M183.56,46.23a11.12,11.12,0,0,1-1.47,5.89A9.35,9.35,0,0,1,178,55.77,13.81,13.81,0,0,1,172,57H159.86V53.25h3.35V38.68h-3.35V34.93h11.91a14.81,14.81,0,0,1,6,1.16A9.07,9.07,0,0,1,182,39.8,12.2,12.2,0,0,1,183.56,46.23Zm-6-.19a7.91,7.91,0,0,0-1.69-5.5,6.38,6.38,0,0,0-5-1.86h-1.95V53.25h1.35a8.67,8.67,0,0,0,4.58-1A4.9,4.9,0,0,0,177,49.7,11.11,11.11,0,0,0,177.55,46Z"/><path class="cls-2" d="M186.77,45.9A11.24,11.24,0,0,1,188.31,40a10.43,10.43,0,0,1,4.32-4,15.13,15.13,0,0,1,12.84,0,10.39,10.39,0,0,1,4.3,4,12.24,12.24,0,0,1,0,11.85,10.32,10.32,0,0,1-4.32,4,15,15,0,0,1-12.73,0,10.6,10.6,0,0,1-4.38-4A11.14,11.14,0,0,1,186.77,45.9Zm18.38,0a8.89,8.89,0,0,0-.73-3.66,6.17,6.17,0,0,0-2.12-2.62,5.9,5.9,0,0,0-6.48,0,6.32,6.32,0,0,0-2.12,2.62,8.9,8.9,0,0,0-.74,3.66,9.14,9.14,0,0,0,.76,3.78,6.22,6.22,0,0,0,2.13,2.64,5.43,5.43,0,0,0,3.18,1,5.62,5.62,0,0,0,3.26-1,6.08,6.08,0,0,0,2.13-2.64A9.3,9.3,0,0,0,205.15,45.87Z"/><path class="cls-2" d="M233.29,41a5.83,5.83,0,0,1-.94,3.39,6.73,6.73,0,0,1-2.87,2.25L233,53.25h2.86V57h-6.73l-5-9.65h-2.52v5.9h2.77V57H212.89V53.25h3V38.68h-3V34.93h12.59a9.43,9.43,0,0,1,5.74,1.54A5.24,5.24,0,0,1,233.29,41Zm-6,.24a2.22,2.22,0,0,0-.8-1.88,3.49,3.49,0,0,0-2.2-.63h-2.61V43.8h2.11C226.12,43.8,227.28,42.93,227.28,41.19Z"/></g></g><rect id="Rectangle_19" data-name="Rectangle 19" class="cls-2" x="122.5" y="71" width="6" height="6" transform="translate(-15.57 110.42) rotate(-45)"/><line id="Line_4" data-name="Line 4" class="cls-3" x1="107" y1="74.5" y2="74.5"/><line id="Line_5" data-name="Line 5" class="cls-3" x1="245" y1="74.5" x2="144" y2="74.5"/><line id="Line_6" data-name="Line 6" class="cls-4" x1="245" y1="16.5" x2="172" y2="16.5"/><line id="Line_7" data-name="Line 7" class="cls-4" x1="78" y1="16.5" y2="16.5"/><g id="star-fill"><path id="star-fill-2" class="cls-5" d="M136.12,8.32a1.48,1.48,0,0,0-1.4-1h-6.4l-2-6.2h0a1.5,1.5,0,0,0-2.9,0l-2,6.1H115a1.48,1.48,0,0,0-1.4,1,1.5,1.5,0,0,0,.5,1.8l5.2,3.8-2,6.1a1.45,1.45,0,0,0,2.2,1.7l5.2-3.8,5.2,3.8a1.45,1.45,0,0,0,2.2-1.7l-2-6.1,5.2-3.8A1.51,1.51,0,0,0,136.12,8.32Z"/></g><g id="star-fill-3"><path id="star-fill-4" class="cls-5" d="M103.16,13.09a1,1,0,0,0-.91-.65H98.11l-1.3-4h0a1,1,0,0,0-1.88,0l-1.3,3.95H89.48a1,1,0,0,0-.9.65,1,1,0,0,0,.32,1.17l3.37,2.46-1.3,4a1,1,0,0,0,.33,1.1,1,1,0,0,0,1.1,0l3.37-2.47,3.37,2.47a.94.94,0,0,0,1.31-.21.92.92,0,0,0,.11-.89l-1.3-4,3.37-2.46a1,1,0,0,0,.52-1.1Z"/></g><g id="star-fill-5"><path id="star-fill-6" class="cls-5" d="M161.16,13.09a1,1,0,0,0-.91-.65h-4.14l-1.3-4h0a1,1,0,0,0-1.88,0l-1.3,3.95h-4.15a1,1,0,0,0-.9.65,1,1,0,0,0,.32,1.17l3.37,2.46-1.3,4a1,1,0,0,0,.33,1.1,1,1,0,0,0,1.1,0l3.37-2.47,3.37,2.47a.94.94,0,0,0,1.31-.21.92.92,0,0,0,.11-.89l-1.3-4,3.37-2.46a1,1,0,0,0,.52-1.1Z"/></g></g></svg>